<?xml version="1.0" encoding="utf-8"?>
<!-- Generator: Adobe Illustrator 16.0.0, SVG Export Plug-In . SVG Version: 6.00 Build 0)  -->
<!DOCTYPE svg PUBLIC "-//W3C//DTD SVG 1.1//EN" "http://www.w3.org/Graphics/SVG/1.1/DTD/svg11.dtd">
<svg version="1.1" xmlns="http://www.w3.org/2000/svg" xmlns:xlink="http://www.w3.org/1999/xlink" x="0px" y="0px"
	 width="39.459px" height="44.469px" viewBox="0 0 39.459 44.469" enable-background="new 0 0 39.459 44.469" xml:space="preserve">
<g id="importit" display="none">
</g>
<g id="LOGOT">
	<path fill="#59595B" d="M23.604,6.773H10.865v3.336H7.528v17.064h12.74v-3.335h3.336V6.773z M18.269,25.174h-8.74V12.109h8.74
		V25.174z M21.604,21.839h-1.336V10.109h-7.403V8.773h8.739V21.839z"/>
	<polygon fill="#999999" points="0,0 0,33.078 19.729,44.469 39.459,33.078 39.459,0 	"/>
	<path fill="#FFFFFF" d="M16.931,20.497h-1.374v1.372h-1.563v-1.372h-1.372v-1.563h1.372v-1.373h1.563v1.373h1.374V20.497z
		 M23.67,19.715c0-0.594-0.482-1.074-1.075-1.074s-1.075,0.48-1.075,1.074s0.482,1.076,1.075,1.076S23.67,20.309,23.67,19.715z
		 M26.764,19.715c0-0.594-0.482-1.074-1.075-1.074s-1.075,0.48-1.075,1.074s0.482,1.076,1.075,1.076S26.764,20.309,26.764,19.715z
		 M30.736,13.465v12.5H8.723v-12.5H30.736z M28.391,23.619v-7.809H11.068v7.809H28.391z"/>
</g>
<g id="REUNUKSET" display="none">
	<polygon display="inline" fill="#010101" points="4.269,42.496 -11.298,51.486 -26.864,42.496 -26.864,24.521 -11.298,15.539 
		4.269,24.521 	"/>
</g>
</svg>
