<?xml version="1.0" encoding="utf-8"?>
<!-- Generator: Adobe Illustrator 16.0.0, SVG Export Plug-In . SVG Version: 6.00 Build 0)  -->
<!DOCTYPE svg PUBLIC "-//W3C//DTD SVG 1.1//EN" "http://www.w3.org/Graphics/SVG/1.1/DTD/svg11.dtd">
<svg version="1.1" xmlns="http://www.w3.org/2000/svg" xmlns:xlink="http://www.w3.org/1999/xlink" x="0px" y="0px"
	 width="31.133px" height="35.947px" viewBox="0 0 31.133 35.947" enable-background="new 0 0 31.133 35.947" xml:space="preserve">
<g id="importit" display="none">
</g>
<g id="LOGOT">
	<path fill="#59595B" d="M12.768,18.757h-1.374v1.372H9.83v-1.372H8.457v-1.563H9.83V15.82h1.563v1.373h1.374V18.757z
		 M19.507,17.975c0-0.594-0.481-1.074-1.075-1.074s-1.075,0.48-1.075,1.074s0.481,1.076,1.075,1.076S19.507,18.568,19.507,17.975z
		 M22.6,17.975c0-0.594-0.481-1.074-1.074-1.074c-0.594,0-1.075,0.48-1.075,1.074s0.481,1.076,1.075,1.076
		C22.118,19.051,22.6,18.568,22.6,17.975z M26.573,11.725v12.5H4.561v-12.5H26.573z M24.229,21.879V14.07H6.905v7.809H24.229z"/>
</g>
<g id="REUNUKSET" display="none">
	<polygon display="inline" fill="#010101" points="31.133,26.957 15.566,35.947 0,26.957 0,8.982 15.566,0 31.133,8.982 	"/>
</g>
</svg>
