<?xml version="1.0" encoding="utf-8"?>
<!-- Generator: Adobe Illustrator 16.0.0, SVG Export Plug-In . SVG Version: 6.00 Build 0)  -->
<!DOCTYPE svg PUBLIC "-//W3C//DTD SVG 1.1//EN" "http://www.w3.org/Graphics/SVG/1.1/DTD/svg11.dtd">
<svg version="1.1" xmlns="http://www.w3.org/2000/svg" xmlns:xlink="http://www.w3.org/1999/xlink" x="0px" y="0px"
	 width="97.941px" height="97.941px" viewBox="0 0 97.941 97.941" enable-background="new 0 0 97.941 97.941" xml:space="preserve">
<g id="importit">
</g>
<g id="LOGOT">
	<path fill="#59595B" d="M67.712,46.123l5.546-10.049h-8.816h-0.294H33.793h-9.11l5.546,10.049h-4.706l5.902,9.65h-2.95L39.4,69.868
		l-1.981-4.604h23.104l-1.981,4.604l10.926-14.095h-2.951l5.902-9.65H67.712z M63.406,58.564l-1.716,3.987H36.251l-1.716-3.987
		h4.467l-5.265-8.853h5.265l-4.173-10.926h28.284l-4.173,10.926h5.264l-5.264,8.853H63.406z M47.356,46.203v1.493h9.251v0.975v4.089
		v1.494v5.064h-6.021h-9.251v-5.064h9.251v-1.494h-9.251v-0.975v-4.089v-1.493v-5.064h6.021h9.251v5.064H47.356z"/>
</g>
<g id="REUNUKSET" display="none">
	<polygon display="inline" fill="none" stroke="#59595B" stroke-width="9.4534" stroke-miterlimit="10" points="48.971,87.655 
		15.469,68.313 15.469,29.629 48.971,10.286 82.473,29.629 82.473,68.313 	"/>
</g>
</svg>
