<?xml version="1.0" encoding="utf-8"?>
<!-- Generator: Adobe Illustrator 16.0.0, SVG Export Plug-In . SVG Version: 6.00 Build 0)  -->
<!DOCTYPE svg PUBLIC "-//W3C//DTD SVG 1.1//EN" "http://www.w3.org/Graphics/SVG/1.1/DTD/svg11.dtd">
<svg version="1.1" xmlns="http://www.w3.org/2000/svg" xmlns:xlink="http://www.w3.org/1999/xlink" x="0px" y="0px"
	 width="97.941px" height="97.941px" viewBox="0 0 97.941 97.941" enable-background="new 0 0 97.941 97.941" xml:space="preserve">
<g id="importit">
</g>
<g id="LOGOT">
	<path fill="#59595B" d="M67.451,31.878l-1.566-0.938h-2.279l-0.356-0.343l-0.996,0.998l-0.854-0.998h-4.416l-1.21-0.356H55.06
		l-0.997,1.496h-1.281l-0.428-0.796h-1.281l0.427-0.699h-6.054l-0.143,0.699l-1.852,0.512l-3.133,0.143l-0.499-0.655H30.49v1.366
		l0.427,0.784l0.143,2.849l-0.569,1.709v3.916l0.783,3.348l-0.427,0.642l0.07,0.997l0.784,1.709l-1.211,1.921v3.491l1.067,0.854
		v3.275l-1.067,1.354v6.339l1.281,0.426l0.713,0.499l4.2-0.571l2.209,0.428l2.137-0.356h1.424c0,0,0.997,0.356,1.496,0.427
		c0.498,0.072,0.498-0.071,0.64-0.212c0.144-0.143,1.354,1.566,1.567,1.566s1.282-0.829,1.282-0.829l1.317,0.331l0.321-0.331
		l0.783,0.331l0.897-0.331h6.937l0.926-0.738l5.057,0.738v-1.024c0,0,2.421,0.144,2.634,0.144c0.214,0,1.14,0.88,1.14,0.88V51.606
		l-0.427-4.914l-1.354-1.709l0.712-1.14l1.068-0.783v-7.478l-0.854-1.993l0.854-0.5V31.878z M53.138,37.933l1.494-0.214l3.277-0.997
		l2.421,1.566v1.515l-0.712,4.041l-7.265-5.626L53.138,37.933z M41.243,61.165h-3.348l-2.848-2.794l2.279-5.911
		c0,0,7.263,6.979,7.263,7.265L41.243,61.165z M60.757,61.077c0,0.357-4.272-0.498-4.272-0.498L34.264,37.505l3.063-1.211
		l25.922,17.733C63.107,56.449,60.757,60.721,60.757,61.077z"/>
</g>
<g id="REUNUKSET" display="none">
	<polygon display="inline" fill="none" stroke="#59595B" stroke-width="9.4534" stroke-miterlimit="10" points="48.971,87.655 
		15.469,68.313 15.469,29.629 48.971,10.286 82.473,29.629 82.473,68.313 	"/>
</g>
</svg>
