<?xml version="1.0" encoding="utf-8"?>
<!-- Generator: Adobe Illustrator 16.0.0, SVG Export Plug-In . SVG Version: 6.00 Build 0)  -->
<!DOCTYPE svg PUBLIC "-//W3C//DTD SVG 1.1//EN" "http://www.w3.org/Graphics/SVG/1.1/DTD/svg11.dtd">
<svg version="1.1" xmlns="http://www.w3.org/2000/svg" xmlns:xlink="http://www.w3.org/1999/xlink" x="0px" y="0px"
	 width="97.941px" height="97.941px" viewBox="0 0 97.941 97.941" enable-background="new 0 0 97.941 97.941" xml:space="preserve">
<g id="importit">
</g>
<g id="LOGOT">
	<linearGradient id="ULKO_x5F_paksu_1_" gradientUnits="userSpaceOnUse" x1="49.2886" y1="54.6348" x2="49.2886" y2="168.52">
		<stop  offset="0" style="stop-color:#FFFFFF"/>
		<stop  offset="0.3764" style="stop-color:#FCFCFC"/>
		<stop  offset="0.522" style="stop-color:#F4F5F5"/>
		<stop  offset="0.6275" style="stop-color:#EAEBEC"/>
		<stop  offset="0.7138" style="stop-color:#DCDDDE"/>
		<stop  offset="0.7882" style="stop-color:#C9CBCD"/>
		<stop  offset="0.8546" style="stop-color:#B2B4B7"/>
		<stop  offset="0.9148" style="stop-color:#989A9D"/>
		<stop  offset="0.9686" style="stop-color:#7C7E81"/>
		<stop  offset="1" style="stop-color:#696A6D"/>
	</linearGradient>
	<circle id="ULKO_x5F_paksu" display="none" fill="url(#ULKO_x5F_paksu_1_)" cx="49.289" cy="111.577" r="56.942"/>
	<path fill="#59595B" d="M26.555,46.667l0-0.002C26.555,46.667,26.555,46.667,26.555,46.667z M52.743,40.697
		c2.615,1.198,4.57,3.597,5.148,6.489l13.605,1.573c-0.098-10.506-7.383-19.291-17.178-21.676L52.743,40.697z M40.696,45.198
		c1.198-2.615,3.597-4.569,6.49-5.147l1.573-13.607c-10.507,0.098-19.292,7.384-21.676,17.18L40.696,45.198z M45.197,57.245
		c-2.615-1.198-4.568-3.598-5.146-6.49l-13.607-1.573c0.098,10.507,7.384,19.292,17.18,21.676L45.197,57.245z M57.245,52.744
		c-1.197,2.615-3.597,4.569-6.489,5.147l-1.573,13.607c10.507-0.098,19.291-7.384,21.676-17.18L57.245,52.744z"/>
</g>
<g id="REUNUKSET" display="none">
	<polygon display="inline" fill="none" stroke="#59595B" stroke-width="9.4534" stroke-miterlimit="10" points="48.971,87.655 
		15.469,68.313 15.469,29.629 48.971,10.286 82.473,29.629 82.473,68.313 	"/>
</g>
</svg>
