<?xml version="1.0" encoding="utf-8"?>
<!-- Generator: Adobe Illustrator 16.0.0, SVG Export Plug-In . SVG Version: 6.00 Build 0)  -->
<!DOCTYPE svg PUBLIC "-//W3C//DTD SVG 1.1//EN" "http://www.w3.org/Graphics/SVG/1.1/DTD/svg11.dtd">
<svg version="1.1" xmlns="http://www.w3.org/2000/svg" xmlns:xlink="http://www.w3.org/1999/xlink" x="0px" y="0px"
	 width="97.941px" height="97.941px" viewBox="0 0 97.941 97.941" enable-background="new 0 0 97.941 97.941" xml:space="preserve">
<g id="importit">
</g>
<g id="LOGOT">
	<path id="cs_go_1_" fill-rule="evenodd" clip-rule="evenodd" fill="#59595B" d="M56.609,69.336
		c-1.459-0.029-2.819,0.16-4.184-0.285c-0.625-0.204-1.371-0.036-2.236-0.036c-0.003-0.606-0.165-1.218,0.019-1.7
		c0.675-1.773,0.251-3.471-0.169-5.187c-0.3-1.23-0.39-2.448-0.014-3.696c0.163-0.534,0.121-1.126,0.185-1.839
		c-1.339,0.117-1.988-0.691-2.525-1.685c-0.243-0.449-0.619-0.826-0.862-1.274c-0.286-0.524-0.557-0.934-1.263-0.992
		c-0.285-0.024-0.532-0.521-0.873-0.882c-0.484,0.989-0.985,2.023-1.491,3.054c-0.076,0.156-0.239,0.308-0.232,0.456
		c0.063,1.467-0.967,2.359-1.768,3.356c-0.314,0.391-0.423,0.779-0.46,1.256c-0.038,0.499-0.138,1.007-0.308,1.477
		c-0.307,0.85-0.675,1.68-1.037,2.51c-0.132,0.3-0.258,0.729-0.5,0.83c-0.728,0.309-0.764,1.04-0.841,1.544
		c-0.159,1.055-0.28,2.172,0.267,3.183c-0.737,0.686-0.737,0.686-3.262,0.569c-0.575-1.362,0.084-2.656,0.278-3.974
		c0.024-0.163,0.224-0.313,0.212-0.459c-0.162-1.808,0.255-3.491,1.029-5.11c0.363-0.76,0.668-1.549,1.029-2.311
		c0.243-0.511,0.55-0.989,0.809-1.49c0.103-0.197,0.277-0.466,0.214-0.619c-0.548-1.329,0.2-2.541,0.302-3.804
		c0.023-0.275,0.091-0.568,0.024-0.825c-0.297-1.165-0.612-2.274,0.306-3.38c0.244-0.295,0.044-0.982,0.009-1.485
		c-0.054-0.794-0.189-1.586-0.189-2.38c0-0.245,0.33-0.49,0.5-0.723c-0.256-0.169-0.583-0.386-0.841-0.56
		c0-1.074-0.042-2.056,0.019-3.031c0.027-0.431,0.266-0.849,0.441-1.367c0.461-0.024,0.957-0.049,1.563-0.08
		c0-1.001,0.019-1.914-0.005-2.826c-0.036-1.334,0.558-2.428,1.338-3.419c0.812-1.029,1.655-1.18,3.165-0.656
		c0-0.654,0.007-1.271,0-1.888c-0.03-2.483,2.514-4.375,5.116-2.833c0.342,0.203,0.652,0.46,1.114,0.792
		c-0.195,1.045,1.425,2.458-0.591,3.399c0,0.367,0,0.743,0,1.2c0.523-0.121,0.952-0.312,1.372-0.294
		c0.733,0.029,0.592-0.541,0.778-0.999c0.451,0.704,1.04,1.018,1.868,1.003c2.312-0.04,4.624-0.021,6.937-0.008
		c0.438,0.003,0.875,0.081,1.422,0.135c0.038-0.373,0.095-0.9,0.148-1.428c0.061-0.002,0.119-0.004,0.179-0.007
		c0.037,0.418-0.021,0.875,0.135,1.244c0.153,0.367,0.519,0.647,0.771,0.937c1.318,0.64,2.698-0.637,4.258,0.163
		c-0.761,0.518-1.441,0.509-2.002,0.402c-1.123-0.21-2.221,0.132-3.326-0.017c-1.3,1.223-2.918,0.303-4.523,0.734
		c-0.274,0.271-0.683,0.674-1.164,1.147c0.087,0.654,0.175,1.315,0.274,2.068c-0.195,0.31-0.66,0.719-0.692,1.16
		c-0.109,1.491-1.256,2.049-2.355,2.873c-1.284-0.513-2.643-1.055-4.034-1.61c-0.07,0.129-0.203,0.368-0.349,0.631
		c0.27,0.229,0.625,0.417,0.795,0.711c0.156,0.271,0.178,0.667,0.143,0.994c-0.114,1.077,0.108,2.15-0.232,3.249
		c-0.273,0.882-0.623,1.282-1.525,1.196c-0.082-0.007-0.175,0.119-0.278,0.191c-0.124,0.682,0.229,1.213,0.63,1.691
		c1.337,1.593,2.214,3.425,2.935,5.357c0.377,1.009,1.178,1.857,0.943,3.084c-0.214,1.116,0.197,2.298-0.319,3.401
		c-0.091,0.195-0.102,0.467-0.052,0.681c0.303,1.291-0.045,2.524-0.226,3.789c-0.078,0.537,0.239,1.207,0.557,1.7
		c0.466,0.725,1.146,1.284,1.99,1.57C56.604,68.134,56.915,68.502,56.609,69.336z"/>
</g>
<g id="REUNUKSET" display="none">
	<polygon display="inline" fill="none" stroke="#59595B" stroke-width="9.4534" stroke-miterlimit="10" points="48.971,87.655 
		15.469,68.313 15.469,29.629 48.971,10.286 82.473,29.629 82.473,68.313 	"/>
</g>
</svg>
