<?xml version="1.0" encoding="utf-8"?>
<!-- Generator: Adobe Illustrator 16.0.0, SVG Export Plug-In . SVG Version: 6.00 Build 0)  -->
<!DOCTYPE svg PUBLIC "-//W3C//DTD SVG 1.1//EN" "http://www.w3.org/Graphics/SVG/1.1/DTD/svg11.dtd">
<svg version="1.1" xmlns="http://www.w3.org/2000/svg" xmlns:xlink="http://www.w3.org/1999/xlink" x="0px" y="0px"
	 width="10.443px" height="10.443px" viewBox="0 0 10.443 10.443" enable-background="new 0 0 10.443 10.443" xml:space="preserve">
<g id="importit" display="none">
</g>
<g id="LOGOT">
	<path fill="#59595B" d="M5.221,0C2.342,0,0,2.342,0,5.222s2.342,5.222,5.221,5.222s5.223-2.342,5.223-5.222S8.1,0,5.221,0z
		 M9.393,4.722H8.021C7.963,3.629,7.725,2.561,7.293,1.565C8.43,2.213,9.229,3.364,9.393,4.722z M4.721,4.722H3.42
		C3.5,3.429,3.873,2.181,4.531,1.07c0.063-0.011,0.127-0.012,0.189-0.02V4.722z M4.721,5.722v3.671
		c-0.063-0.008-0.127-0.009-0.189-0.02C3.873,8.263,3.5,7.015,3.42,5.722H4.721z M5.721,5.722h1.301
		C6.943,7.016,6.568,8.264,5.91,9.373c-0.063,0.011-0.127,0.012-0.189,0.02V5.722z M5.721,4.722V1.051
		C5.783,1.059,5.848,1.06,5.91,1.07C6.568,2.18,6.943,3.428,7.021,4.722H5.721z M3.15,1.566C2.717,2.561,2.48,3.629,2.42,4.722
		H1.051C1.215,3.365,2.012,2.214,3.15,1.566z M1.051,5.722H2.42C2.48,6.814,2.717,7.883,3.15,8.877
		C2.012,8.229,1.215,7.078,1.051,5.722z M7.293,8.878c0.432-0.995,0.67-2.063,0.729-3.156h1.371C9.229,7.079,8.43,8.23,7.293,8.878z
		"/>
</g>
<g id="REUNUKSET" display="none">
</g>
</svg>
