<?xml version="1.0" encoding="utf-8"?>
<!-- Generator: Adobe Illustrator 16.0.0, SVG Export Plug-In . SVG Version: 6.00 Build 0)  -->
<!DOCTYPE svg PUBLIC "-//W3C//DTD SVG 1.1//EN" "http://www.w3.org/Graphics/SVG/1.1/DTD/svg11.dtd">
<svg version="1.1" xmlns="http://www.w3.org/2000/svg" xmlns:xlink="http://www.w3.org/1999/xlink" x="0px" y="0px"
	 width="82.197px" height="94.914px" viewBox="0 0 82.197 94.914" enable-background="new 0 0 82.197 94.914" xml:space="preserve">
<g id="importit" display="none">
</g>
<g id="LOGOT">
	<path fill="#59595B" d="M66.178,63.177c-1.767-3.969-6.317-4.672-10.181-5.819c-4.907-1.457-8.906-4.624-8.951-6.6
		c0-0.383,0-1.053,0-1.786l-4.912,1.373c-0.136,0.037-0.266,0.055-0.394,0.055c-0.654,0-1.232-0.44-1.407-1.07
		c-0.217-0.772,0.237-1.58,1.012-1.799l6.675-1.865c0.289-0.574,0.514-1.162,0.695-1.742c0.079,0.033,0.134,0.159,0.134,0.159
		s0.227,0.578,0.59,0.773l-0.894,1.479l-6.988,1.953c-0.358,0.101-0.567,0.473-0.468,0.831c0.084,0.298,0.355,0.494,0.649,0.494
		c0.06,0,0.121-0.009,0.182-0.025l7.246-2.024c0.166-0.046,0.307-0.154,0.396-0.302l1.576-2.612
		c1.146-0.302,2.195-0.729,2.195-0.729l2.78-9.478c0,0-0.362-1.133-1.228-1.719c-0.237-2.618-1.674-4.696-2.589-5.778
		c-0.686-1.473-1.601-2.718-2.746-3.729c-2.158-1.904-5.127-2.926-8.368-2.872c-0.073,0-0.098,0-0.171,0
		c-3.237-0.053-6.21,0.968-8.368,2.872c-1.145,1.011-2.061,2.256-2.746,3.729c-0.915,1.082-2.352,3.16-2.589,5.778
		c-0.866,0.586-1.228,1.719-1.228,1.719l2.78,9.478c0,0,2.132,0.876,3.648,1.007c0.506,0.012,0.836-0.844,0.836-0.844
		s0.053-0.12,0.127-0.156c0.352,1.126,0.878,2.285,1.676,3.304c0,1.271,0,2.844,0,3.526c-0.044,1.977-4.044,5.144-8.951,6.6
		c-3.863,1.147-8.414,1.85-10.181,5.819l25.08,14.479L66.178,63.177z M50.271,25.375c1.234,1.67,2.027,3.806,2.37,6.385
		c-0.011,0.065-0.022,0.13-0.035,0.196c-0.571-0.153-1.37-0.115-1.886-0.064c-0.14,0.007-0.299,0.026-0.479,0.056
		c-0.019,0.004-0.029,0.005-0.029,0.005c-0.031,0.004-0.062,0.01-0.094,0.017c-0.084,0.018-0.169,0.076-0.253,0.131
		c0.021-0.243,0.051-0.483,0.051-0.733c0-2.959-1.471-5.479-3.717-6.994C47.503,24.907,49.052,25.224,50.271,25.375z M32.391,31.368
		c0,0.041,0.003,0.083,0.003,0.125l-0.003-0.001c0,0-0.008,0.24-0.018,0.631c-0.098-0.072-0.197-0.132-0.295-0.153
		c-0.032-0.007-0.063-0.012-0.094-0.017c0,0-0.011-0.001-0.029-0.005c-0.179-0.03-0.338-0.049-0.479-0.056
		c-0.516-0.05-1.314-0.089-1.886,0.064c-0.012-0.066-0.023-0.131-0.034-0.196c0.343-2.579,1.136-4.714,2.369-6.385
		c1.281-0.16,2.931-0.493,4.271-1.076c0.012-0.005,0.024-0.009,0.036-0.014C33.914,25.791,32.391,28.354,32.391,31.368z"/>
</g>
<g id="REUNUKSET" display="none">
	<path display="inline" d="M-22.072,96.914L-63.17,73.186V25.729L-22.072,2l41.099,23.729v47.457L-22.072,96.914z M-53.17,67.412
		l31.099,17.955L9.027,67.412v-35.91l-31.099-17.956L-53.17,31.502V67.412z"/>
	<path display="inline" d="M110.128,96.914L69.03,73.186V25.729L110.128,2l41.099,23.729v47.457L110.128,96.914z M79.03,67.412
		l31.099,17.955l31.099-17.955v-35.91l-31.099-17.956L79.03,31.502V67.412z"/>
</g>
</svg>
