<?xml version="1.0" encoding="utf-8"?>
<!-- Generator: Adobe Illustrator 16.0.0, SVG Export Plug-In . SVG Version: 6.00 Build 0)  -->
<!DOCTYPE svg PUBLIC "-//W3C//DTD SVG 1.1//EN" "http://www.w3.org/Graphics/SVG/1.1/DTD/svg11.dtd">
<svg version="1.1" xmlns="http://www.w3.org/2000/svg" xmlns:xlink="http://www.w3.org/1999/xlink" x="0px" y="0px"
	 width="39.459px" height="44.469px" viewBox="0 0 39.459 44.469" enable-background="new 0 0 39.459 44.469" xml:space="preserve">
<g id="importit" display="none">
</g>
<g id="LOGOT">
	<path fill="#59595B" d="M7.488,28.182v-6.005h-9.953V7.766h19.41v14.411h-3.696L7.488,28.182z M-0.465,20.177h9.953v3.03
		l2.907-3.03h2.55V9.766h-15.41V20.177z"/>
	<g>
		<polygon fill="#999999" points="0,0 0,33.078 19.729,44.469 39.459,33.078 39.459,0 		"/>
		<path fill="#FFFFFF" d="M28.367,8.314H15.43v4.336h-4.338v17.264h12.939V25.58h4.336V8.314z M21.832,27.715h-8.541V14.85h8.541
			V27.715z M26.168,23.379h-2.137V12.65h-6.402v-2.137h8.539V23.379z"/>
	</g>
</g>
<g id="REUNUKSET" display="none">
	<polygon display="inline" fill="#010101" points="31.772,42.496 16.206,51.486 0.639,42.496 0.639,24.521 16.206,15.539 
		31.772,24.521 	"/>
</g>
</svg>
