<?xml version="1.0" encoding="utf-8"?>
<!-- Generator: Adobe Illustrator 16.0.0, SVG Export Plug-In . SVG Version: 6.00 Build 0)  -->
<!DOCTYPE svg PUBLIC "-//W3C//DTD SVG 1.1//EN" "http://www.w3.org/Graphics/SVG/1.1/DTD/svg11.dtd">
<svg version="1.1" xmlns="http://www.w3.org/2000/svg" xmlns:xlink="http://www.w3.org/1999/xlink" x="0px" y="0px"
	 width="97.941px" height="97.941px" viewBox="0 0 97.941 97.941" enable-background="new 0 0 97.941 97.941" xml:space="preserve">
<g id="importit">
</g>
<g id="LOGOT">
	<path fill="#59595B" d="M36.655,66.46l4.592-2.816h2.087l1.355-1.878l2.61-1.044l1.982-0.625l3.338-1.982l0.835-1.46l2.296-2.191
		l1.356-1.565l0.73-3.234h3.651l-0.939-0.537l-0.729-2.073l-0.418-2.713l-0.312-1.669l-2.088-3.651c0,0-1.252-2.088-1.46-2.4
		c-0.209-0.313-2.608-2.609-2.608-2.609h-1.566h-2.295l-2.817,1.044l-2.19,0.835l-3.548,2.086l-1.879,2.401l0.104,4.174l0.627,1.565
		l2.922,3.548l1.356,0.573l1.669-1.109l1.044-1.446l-0.939-1.149l-0.938-1.668l1.042-1.253l1.775-0.417h1.982l1.983,2.504
		l1.146,2.922l0.626,1.617l-0.313,1.409l-1.774,2.4l-1.669,0.626l-1.044-0.418l-1.773,1.879c0,0-1.253,0.522-1.982,0.626
		c-0.73,0.104-3.34,0.625-3.652,0.313c-0.313-0.313-1.461-1.46-1.773-1.67c-0.314-0.208-2.401-2.504-2.401-2.504l-1.981-1.879
		l-1.879-1.355l-0.938-1.67l0.626-2.609l-0.104-3.13l-1.147-0.834v-0.939v-1.564c0,0,1.147,0.104,1.461-0.105
		c0.312-0.208,1.774-1.148,1.982-1.46c0.209-0.313,1.043-1.983,1.043-1.983s0.417-1.983,0.521-2.296
		c0.104-0.313,2.609-2.294,2.609-2.294l1.252-1.67l2.399-0.835l1.357,0.625l1.668-0.625h2.714l2.661,0.939l4.227,0.834h2.398
		l1.461,1.356l1.357,1.461l1.981,1.043l0.626,1.566c0,0,0.313,2.712,0.94,3.234c0.625,0.521,1.252,3.026,1.252,3.026l0.938,1.982
		v3.234l0.626,3.652v3.235l-0.521,3.235c0,0-0.626,1.043-0.939,1.357c-0.313,0.313-2.19,1.461-2.19,1.461l-0.835,0.626l0.207,1.982
		l-0.938,1.565l-2.608,0.522l-3.651,1.877l-1.878,0.626l-3.026,1.461l-1.982,0.939c0,0-2.087,0.418-2.818,0
		c-0.73-0.418-1.981-0.835-1.981-0.835l-3.234-0.417l-2.297-0.627L36.655,66.46z"/>
</g>
<g id="REUNUKSET" display="none">
	<polygon display="inline" fill="none" stroke="#59595B" stroke-width="9.4534" stroke-miterlimit="10" points="48.971,87.655 
		15.469,68.313 15.469,29.629 48.971,10.286 82.473,29.629 82.473,68.313 	"/>
</g>
</svg>
