<?xml version="1.0" encoding="utf-8"?>
<!-- Generator: Adobe Illustrator 16.0.0, SVG Export Plug-In . SVG Version: 6.00 Build 0)  -->
<!DOCTYPE svg PUBLIC "-//W3C//DTD SVG 1.1//EN" "http://www.w3.org/Graphics/SVG/1.1/DTD/svg11.dtd">
<svg version="1.1" xmlns="http://www.w3.org/2000/svg" xmlns:xlink="http://www.w3.org/1999/xlink" x="0px" y="0px"
	 width="82.197px" height="94.914px" viewBox="0 0 82.197 94.914" enable-background="new 0 0 82.197 94.914" xml:space="preserve">
<g id="importit" display="none">
</g>
<g id="LOGOT">
	<g>
		<path fill="#59595B" d="M29.829,57.48c0.306-5.632,2.428-10.918,6.042-15.156c-2.794,0.296-5.491,1.094-8.048,2.394
			c-5.542,2.806-9.657,7.604-11.586,13.511c-0.453,1.384-0.772,2.791-0.96,4.205l19.074,11.011
			C31.192,68.9,29.511,63.325,29.829,57.48z"/>
		<path fill="#59595B" d="M58.081,66.398L58.081,66.398c-4.949,0-9.762-1.437-13.924-4.148c-4.724-3.081-8.238-7.562-10.102-12.808
			c-1.134,2.568-1.803,5.346-1.956,8.16c-0.338,6.204,1.761,12.165,5.909,16.792c0.973,1.081,2.032,2.063,3.163,2.934l19.095-11.026
			C59.544,66.365,58.813,66.398,58.081,66.398z"/>
		<path fill="#59595B" d="M24.165,28.512c4.948,0,9.762,1.437,13.923,4.151c4.724,3.081,8.239,7.56,10.103,12.804
			c1.131-2.565,1.802-5.339,1.955-8.16c0.336-6.202-1.762-12.165-5.909-16.786c-0.972-1.088-2.033-2.069-3.163-2.938L21.978,28.605
			C22.701,28.545,23.431,28.512,24.165,28.512z"/>
		<path fill="#59595B" d="M52.415,37.434c-0.306,5.632-2.428,10.918-6.041,15.152c2.793-0.289,5.491-1.094,8.047-2.388
			c5.541-2.811,9.656-7.611,11.587-13.514c0.454-1.386,0.772-2.793,0.962-4.208L47.892,21.463
			C51.051,26.011,52.733,31.586,52.415,37.434z"/>
		<path fill="#59595B" d="M26.794,42.687c3.619-1.833,7.496-2.761,11.525-2.761c1.551,0,3.094,0.136,4.615,0.416
			c-1.654-2.264-3.726-4.231-6.089-5.775c-3.792-2.472-8.177-3.779-12.681-3.779c-3.124,0-6.152,0.619-8.937,1.771v22.027
			C17.586,49.58,21.572,45.336,26.794,42.687z"/>
		<path fill="#ED1C24" d="M45.229,47.457c0-2.299-1.859-4.155-4.153-4.155c-2.297,0-4.156,1.856-4.156,4.155
			c0,2.292,1.859,4.155,4.156,4.155C43.369,51.612,45.229,49.749,45.229,47.457z"/>
	</g>
</g>
<g id="REUNUKSET" display="none">
	<path display="inline" d="M13.758,96.914l-41.099-23.729V25.729L13.758,2l41.099,23.729v47.457L13.758,96.914z M-17.341,67.412
		l31.099,17.955l31.099-17.955v-35.91L13.758,13.547l-31.099,17.956V67.412z"/>
</g>
</svg>
