<?xml version="1.0" encoding="utf-8"?>
<!-- Generator: Adobe Illustrator 16.0.0, SVG Export Plug-In . SVG Version: 6.00 Build 0)  -->
<!DOCTYPE svg PUBLIC "-//W3C//DTD SVG 1.1//EN" "http://www.w3.org/Graphics/SVG/1.1/DTD/svg11.dtd">
<svg version="1.1" xmlns="http://www.w3.org/2000/svg" xmlns:xlink="http://www.w3.org/1999/xlink" x="0px" y="0px"
	 width="97.941px" height="97.941px" viewBox="0 0 97.941 97.941" enable-background="new 0 0 97.941 97.941" xml:space="preserve">
<g id="importit">
</g>
<g id="LOGOT">
	<path fill="#59595B" d="M43.703,44.198l3.77-4.021v13.481c-1.717-2.088-6.208-7.632-9.124-11.238l2.955-0.001
		c1.224,0,1.5,0.427,1.721,0.769L43.703,44.198z M37.919,51.366c0,0.874,0,1.749,0,2.615h2.21
		C39.564,53.314,38.79,52.397,37.919,51.366z M37.919,37.562c0,0.017,0,0.038,0,0.056l9.554,0.001v-7.515l-5.95-2.515l-9.428,2.515
		C32.095,30.104,37.919,32.171,37.919,37.562z M46.383,58.982h-8.464c0,4.254,0,7.409,0,7.409s4.749,6.676,9.554,7.961v-15.61
		C47.145,58.896,46.777,58.982,46.383,58.982z M58.873,53.166c0.563,0.692,1.259,1.234,2.065,1.64c0-4.247,0-8.873,0-12.419h-3.77
		C57.057,42.97,55.898,49.514,58.873,53.166z M53.428,37.661h7.51c0-0.031,0-0.069,0-0.1c0-5.391,5.824-7.458,5.824-7.458
		l-9.428-2.515l-5.95,2.515v9.543L53.428,37.661z M59.749,59.191c0,0-0.001,0-0.001,0c-3.247-0.001-6.364-1.557-8.336-4.163
		c-0.009-0.011-0.018-0.024-0.027-0.036v19.36c4.805-1.285,9.554-7.961,9.554-7.961s0-3.092,0-7.281
		C60.546,59.159,60.15,59.191,59.749,59.191z M30.991,41.557c0,0,9.936-0.003,10.312-0.003c1.833,0,2.246,0.869,2.51,1.26
		c2.884-3.073,4.061-4.328,4.061-4.328s-14.921-0.002-15.152-0.002C32.492,38.483,30.991,38.783,30.991,41.557z M31.298,42.143
		h5.713c0,0,9.779,12.104,10.483,12.894c1.037,1.162,0.481,3.079-1.111,3.079c-1.948,0-17.348,0-17.348,0l4.211-4.463
		c0,0,1.005,1.193,2.138,1.193c1.13,0,6.159,0,6.159,0s0.439-0.082,0.147-0.377C41.396,54.176,31.298,42.143,31.298,42.143z
		 M50.699,41.521h12.466l0.775,1.292c0,0,4.295-2.633,4.965-4.288c-7.166,0-15.127,0-15.127,0L50.699,41.521z M50.699,42.171h5.628
		c0,0-2.988,14.36,8.661,14.36C59.094,61.362,46.69,56.39,50.699,42.171z"/>
</g>
<g id="REUNUKSET" display="none">
	<polygon display="inline" fill="none" stroke="#59595B" stroke-width="9.4534" stroke-miterlimit="10" points="48.971,87.655 
		15.469,68.313 15.469,29.629 48.971,10.286 82.473,29.629 82.473,68.313 	"/>
</g>
</svg>
