<?xml version="1.0" encoding="utf-8"?>
<!-- Generator: Adobe Illustrator 16.0.0, SVG Export Plug-In . SVG Version: 6.00 Build 0)  -->
<!DOCTYPE svg PUBLIC "-//W3C//DTD SVG 1.1//EN" "http://www.w3.org/Graphics/SVG/1.1/DTD/svg11.dtd">
<svg version="1.1" xmlns="http://www.w3.org/2000/svg" xmlns:xlink="http://www.w3.org/1999/xlink" x="0px" y="0px"
	 width="97.941px" height="97.941px" viewBox="0 0 97.941 97.941" enable-background="new 0 0 97.941 97.941" xml:space="preserve">
<g id="importit">
</g>
<g id="LOGOT">
	<g>
		<path fill="#59595B" d="M34.574,30.911c3.951-3.153,8.948-5.048,14.395-5.048s10.443,1.895,14.395,5.048l-4.608,5.193
			c-2.723-2.074-6.107-3.321-9.787-3.321s-7.064,1.247-9.787,3.321L34.574,30.911z M65.194,32.526l-4.61,5.194
			c2.826,2.917,4.573,6.882,4.573,11.254c0,3.438-1.084,6.625-2.919,9.248l-7.958-7.957l-4.129-10.456v16.154l6.974,6.974
			c-2.4,1.406-5.182,2.225-8.157,2.225c-2.991,0-5.784-0.828-8.19-2.248l6.951-6.951V39.809l-4.128,10.456l-7.925,7.925
			c-1.821-2.618-2.896-5.792-2.896-9.216c0-4.373,1.748-8.338,4.573-11.254l-4.61-5.194c-4.247,4.19-6.884,10.009-6.884,16.448
			c0,12.763,10.346,23.108,23.109,23.108s23.109-10.345,23.109-23.108C72.078,42.535,69.441,36.716,65.194,32.526z"/>
	</g>
</g>
<g id="REUNUKSET" display="none">
	<polygon display="inline" fill="none" stroke="#59595B" stroke-width="9.4534" stroke-miterlimit="10" points="48.971,87.655 
		15.469,68.313 15.469,29.629 48.971,10.286 82.473,29.629 82.473,68.313 	"/>
</g>
</svg>
