<?xml version="1.0" encoding="utf-8"?>
<!-- Generator: Adobe Illustrator 16.0.0, SVG Export Plug-In . SVG Version: 6.00 Build 0)  -->
<!DOCTYPE svg PUBLIC "-//W3C//DTD SVG 1.1//EN" "http://www.w3.org/Graphics/SVG/1.1/DTD/svg11.dtd">
<svg version="1.1" xmlns="http://www.w3.org/2000/svg" xmlns:xlink="http://www.w3.org/1999/xlink" x="0px" y="0px"
	 width="97.941px" height="97.941px" viewBox="0 0 97.941 97.941" enable-background="new 0 0 97.941 97.941" xml:space="preserve">
<g id="importit">
</g>
<g id="LOGOT">
	<g>
		<path fill-rule="evenodd" clip-rule="evenodd" fill="#59595B" d="M53.094,42.618c-0.126-0.22-0.206-0.299-0.216-0.386
			c-0.015-0.164-0.034-0.359,0.042-0.486c0.042-0.07,0.296-0.079,0.415-0.028c0.443,0.192,0.879,0.403,1.295,0.647
			c0.135,0.08,0.307,0.312,0.274,0.42c-0.129,0.448,0.208,0.46,0.446,0.646c0.396,0.308,0.744,0.701,1.042,1.108
			c0.361,0.494,0.65,1.038,1.111,1.46c0.131,0.12,0.167,0.343,0.247,0.519c-0.163,0.065-0.325,0.184-0.487,0.186
			c-0.707,0.016-1.248,0.434-1.836,0.73c-0.1,0.05-0.165,0.169-0.276,0.289c0.604-0.203,1.136-0.428,1.69-0.558
			c0.898-0.209,1.774-0.005,2.597,0.364c0.519,0.234,0.526,0.521,0.06,0.833c-0.401,0.269-0.842,0.477-1.251,0.733
			c-0.137,0.086-0.32,0.242-0.317,0.359c0.002,0.121,0.195,0.257,0.33,0.35c0.124,0.084,0.29,0.106,0.421,0.185
			c0.679,0.412,1.11,0.973,1.039,1.82c-0.071,0.849-0.199,1.679-0.758,2.369c-0.174,0.214-0.361,0.423-0.567,0.607
			c-1.091,0.979-2.379,0.44-3.079-0.298c-0.326-0.341-0.575-0.786-0.753-1.227c-0.165-0.415-0.415-0.691-0.791-0.886
			c-1-0.52-1.994-1.05-3.003-1.55c-0.193-0.095-0.447-0.095-0.672-0.087c-0.522,0.019-1.009-0.052-1.478-0.314
			c-0.423-0.237-0.427-0.195-0.717,0.226c-0.275,0.397-0.562,0.792-0.885,1.15c-0.464,0.514-1.1,0.762-1.758,0.871
			c-0.33,0.054-0.706-0.067-1.046-0.164c-1.063-0.303-1.835-1.002-2.405-1.914c-0.41-0.654-0.525-1.373-0.245-2.134
			c0.154-0.423,0.113-0.466-0.283-0.622c-0.166-0.066-0.337-0.119-0.509-0.171c-0.222-0.068-0.408-0.086-0.644,0.063
			c-0.834,0.528-1.689,0.47-2.551,0.016c-0.65-0.345-1.189-0.799-1.567-1.427c-0.268-0.447-0.24-0.989-0.089-1.417
			c0.277-0.78,0.245-1.561,0.245-2.351c0.003-0.402,0.103-0.752,0.383-1.053c0.231-0.249,0.489-0.356,0.825-0.238
			c0.313,0.109,0.636,0.197,0.945,0.319c0.334,0.131,0.575,0.034,0.828-0.204c0.734-0.688,0.781-0.696,1.709-0.215
			c0.313,0.163,0.621,0.365,0.876,0.605c0.263,0.247,0.53,0.357,0.888,0.36c0.977,0.008,1.921-0.009,2.848-0.443
			c0.912-0.428,0.943-0.367,2.54-0.17c0.58,0.071,1.152,0.223,1.735,0.259c1.015,0.063,1.945,0.42,2.893,0.729
			C52.731,42.526,52.829,42.547,53.094,42.618z M39.816,44.661c-0.04,0.029-0.082,0.057-0.123,0.085
			c0.091,0.158,0.197,0.312,0.274,0.478c0.059,0.129,0.143,0.287,0.113,0.407c-0.123,0.543-0.717,0.856-1.25,0.661
			c-0.271-0.099-0.521-0.255-0.789-0.389c-0.118,0.758,0.044,1.06,0.648,1.287c0.396,0.15,0.779,0.221,1.187,0.011
			c0.143-0.072,0.336-0.04,0.505-0.062c0.17-0.022,0.357-0.014,0.506-0.085c0.293-0.14,0.568-0.191,0.887-0.078
			c0.373,0.132,0.654,0.026,0.937-0.297c0.653-0.749,1.521-0.999,2.5-0.865c0.201,0.028,0.397,0.092,0.598,0.131
			c1.24,0.237,2.278,1.266,2.487,2.485c0.034,0.2,0.001,0.413,0.044,0.611c0.028,0.136,0.112,0.346,0.21,0.369
			c0.342,0.082,0.687,0.246,1.054,0.177c-0.403-0.709-0.794-1.368-1.157-2.039c-0.414-0.763-0.928-1.404-1.766-1.738
			c-0.229-0.091-0.488-0.231-0.615-0.426c-0.574-0.889-1.558-1.015-2.423-1.362c-0.041-0.015-0.161,0.051-0.166,0.09
			c-0.008,0.063,0.032,0.166,0.084,0.194c0.244,0.132,0.499,0.243,0.866,0.416c-0.481,0-0.838-0.012-1.194,0.005
			c-0.469,0.021-0.502,0.06-0.602,0.518c-0.023,0.1-0.016,0.208-0.053,0.301c-0.143,0.368-0.547,0.601-0.919,0.543
			c-0.392-0.062-0.596-0.345-0.6-0.83c-0.001-0.091,0-0.184,0-0.319c-0.525,0.427-0.627,0.419-1.022-0.029
			C39.963,44.829,39.891,44.745,39.816,44.661z M51.016,45.346c0-0.002,0-0.006,0-0.009c0.665,0,1.332,0.011,1.997-0.005
			c0.353-0.009,0.391-0.09,0.336-0.426c-0.101-0.625-0.487-1.118-0.778-1.653c-0.065-0.121-0.291-0.19-0.454-0.22
			c-0.627-0.113-1.257-0.207-1.888-0.296c-1.076-0.153-1.841,0.217-2.365,1.149c-0.068,0.123-0.131,0.296-0.099,0.42
			c0.108,0.407,0.974,1.033,1.405,1.039C49.784,45.353,50.4,45.346,51.016,45.346z M44.257,42.425
			c0.837,0.522,1.66,0.704,2.473,0.897c0.109,0.026,0.259-0.026,0.361-0.087c0.429-0.254,0.849-0.525,1.355-0.845
			c-0.661-0.244-1.275-0.472-1.892-0.695c-0.068-0.024-0.157-0.036-0.227-0.018C45.67,41.866,44.985,41.976,44.257,42.425z
			 M39.999,42.267c-0.707-0.65-1.44-0.188-2.087-0.364c-0.033-0.009-0.104,0.04-0.122,0.079c-0.168,0.368-0.455,0.736-0.465,1.113
			c-0.02,0.725,0.274,1.444,0.116,2.189c-0.01,0.044,0.084,0.157,0.125,0.155c0.09-0.004,0.206-0.042,0.249-0.108
			c0.053-0.076,0.05-0.196,0.056-0.296c0.015-0.331,0.036-0.64,0.51-0.557c0.055,0.01,0.166-0.063,0.177-0.114
			c0.063-0.248,0.133-0.5,0.127-0.75c-0.002-0.108-0.182-0.211-0.278-0.319c-0.083-0.094-0.179-0.182-0.242-0.288
			c-0.117-0.198-0.057-0.345,0.169-0.405c0.123-0.033,0.251-0.05,0.375-0.074C39.103,42.447,39.496,42.368,39.999,42.267z
			 M54.077,46.04c-0.752-0.287-4.075-0.436-4.98-0.224c0.262,0.368,0.526,0.707,0.758,1.068c0.145,0.228,0.261,0.248,0.486,0.096
			c0.56-0.375,1.184-0.604,1.848-0.707C52.791,46.182,53.398,46.123,54.077,46.04z M54.049,48.999
			c0.586,0.262,1.1,0.488,1.607,0.722c0.71,0.326,0.927,0.258,1.391-0.503c-0.497-0.216-0.984-0.433-1.476-0.642
			C54.804,48.249,54.793,48.253,54.049,48.999z M55.274,45.631c0.048-0.018,0.149-0.038,0.215-0.097
			c0.029-0.026,0.001-0.156-0.038-0.206c-0.431-0.51-0.914-0.958-1.521-1.254c-0.059-0.028-0.161-0.031-0.209,0.003
			c-0.045,0.032-0.075,0.139-0.057,0.196c0.206,0.672,0.427,1.336,1.338,1.275C55.074,45.543,55.148,45.59,55.274,45.631z
			 M46.709,49.73c-0.731,0.07-0.776,0.133-0.564,0.823c0.008,0.025,0.01,0.051,0.021,0.074c0.109,0.218,0.22,0.436,0.329,0.654
			c0.201-0.181,0.405-0.361,0.605-0.542c0.019-0.016,0.026-0.043,0.038-0.066c0.128-0.213,0.398-0.438,0.22-0.673
			C47.237,49.838,46.932,49.815,46.709,49.73z M46.782,49.195c0.001,0.003,0.001,0.006,0.001,0.009
			c0.176-0.008,0.362,0.012,0.529-0.034c0.094-0.026,0.211-0.15,0.228-0.248c0.059-0.323-0.343-0.995-0.653-1.033
			c-0.342-0.042-0.382,0.336-0.551,0.533c-0.081,0.093-0.127,0.219-0.178,0.334c-0.143,0.323-0.097,0.408,0.243,0.436
			C46.528,49.204,46.655,49.195,46.782,49.195z M45.747,47.506c-0.242,0.138-0.616,0.33-0.962,0.563
			c-0.065,0.045-0.065,0.286-0.008,0.384c0.086,0.145,0.235,0.27,0.385,0.352c0.085,0.046,0.272,0.034,0.335-0.028
			c0.24-0.254,0.469-0.526,0.666-0.816C46.328,47.719,46.198,47.515,45.747,47.506z M37.132,41.371
			c-0.095,0.042-0.186,0.055-0.222,0.106c-0.241,0.334-0.465,0.687-0.436,1.118c0.044,0.684,0.11,1.366,0.178,2.047
			c0.005,0.055,0.085,0.102,0.132,0.153c0.049-0.049,0.136-0.098,0.137-0.149c0.021-0.537,0.08-1.08,0.018-1.607
			c-0.061-0.519-0.101-1,0.229-1.447C37.194,41.554,37.147,41.462,37.132,41.371z M54.66,51.652
			c0.083-0.035,0.175-0.043,0.214-0.092c0.262-0.336,0.519-0.677,0.761-1.029c0.031-0.046-0.019-0.2-0.076-0.247
			c-0.17-0.139-0.358-0.183-0.54,0c-0.267,0.269-0.54,0.532-0.808,0.802c-0.134,0.137-0.127,0.271,0.045,0.37
			C54.385,51.53,54.524,51.587,54.66,51.652z M45.199,51.647c0.413,0.042,0.529-0.098,0.426-0.482
			c-0.045-0.17-0.103-0.338-0.164-0.504c-0.158-0.432-0.208-0.441-0.546-0.13c-0.057,0.052-0.11,0.107-0.161,0.161
			c-0.604,0.642-0.287,0.661,0.264,0.908C45.086,51.63,45.163,51.638,45.199,51.647z M43.98,50.583
			c0.242-0.257,0.431-0.455,0.615-0.656c0.439-0.476,0.437-0.494-0.116-0.837c-0.044-0.027-0.084-0.062-0.125-0.09
			c-0.172-0.12-0.298-0.053-0.366,0.113C43.797,49.572,43.801,50.035,43.98,50.583z M58.406,54.067
			c0.433-0.274,0.629-0.651,0.772-1.058c0.022-0.065-0.059-0.238-0.092-0.237c-0.296,0.002-0.604-0.008-0.878,0.081
			c-0.064,0.021-0.037,0.408-0.005,0.62C58.235,53.663,58.327,53.842,58.406,54.067z M53.787,49.357
			c-0.121,0.05-0.203,0.063-0.255,0.111c-0.295,0.278-0.589,0.559-0.867,0.854c-0.054,0.056-0.079,0.234-0.046,0.261
			c0.091,0.068,0.281,0.152,0.327,0.111c0.36-0.312,0.701-0.644,1.023-0.993C53.999,49.671,53.854,49.48,53.787,49.357z
			 M57.813,53.068c-0.213,0.2-0.393,0.336-0.533,0.504c-0.249,0.298-0.159,0.615,0.201,0.788c0.314,0.153,0.571,0,0.535-0.348
			C57.985,53.718,57.895,53.431,57.813,53.068z M41.42,42.128c-0.382-0.486-0.845-0.768-1.407-0.867
			c-0.023-0.005-0.058-0.029-0.07-0.02c-0.095,0.069-0.236,0.129-0.264,0.22c-0.022,0.08,0.064,0.266,0.138,0.285
			C40.347,41.892,40.885,42.005,41.42,42.128z M38.491,44.927c-0.188,0.083,0.286,0.446-0.198,0.363
			c-0.007-0.001-0.068,0.143-0.048,0.16c0.278,0.252,0.562,0.477,0.969,0.524c0.333,0.038,0.08-0.415,0.363-0.365
			c-0.056-0.089-0.095-0.217-0.176-0.26C39.099,45.189,38.78,45.058,38.491,44.927z M48.136,46.409
			c0.249,0.45,0.383,0.8,0.614,1.069c0.111,0.13,0.402,0.117,0.613,0.143c0.021,0.001,0.122-0.23,0.087-0.275
			C49.146,46.952,48.778,46.629,48.136,46.409z M47.069,44.434c-0.271-0.552-0.771-0.522-1.127-0.72
			c-0.073-0.041-0.302,0.053-0.347,0.143c-0.093,0.182,0,0.351,0.217,0.389C46.181,44.309,46.554,44.357,47.069,44.434z
			 M58.677,52.423c0.51,0.01,0.696-0.089,0.633-0.32c-0.055-0.199-0.176-0.405-0.328-0.542c-0.099-0.09-0.622,0.495-0.564,0.683
			C58.447,52.342,58.63,52.393,58.677,52.423z M58.35,51.392c-0.184,0.148-0.371,0.289-0.544,0.448
			c-0.031,0.028-0.019,0.153,0.018,0.193c0.041,0.043,0.143,0.07,0.198,0.05C58.313,51.982,58.39,51.737,58.35,51.392z
			 M57.061,53.154c0.057,0.032,0.11,0.063,0.166,0.095c0.107-0.187,0.224-0.37,0.313-0.565c0.021-0.042-0.029-0.155-0.078-0.181
			c-0.038-0.021-0.159,0.017-0.18,0.059C57.195,52.753,57.132,52.955,57.061,53.154z"/>
		<path fill="#59595B" d="M73.221,36.248L73.221,36.248c-7.011-3.927-15.095-6.166-23.701-6.166c-4.25,0-8.374,0.547-12.304,1.572
			c0,0.001,0,0.001,0.001,0.001c-1.338-1.292-3.156-2.09-5.16-2.09c-4.098,0-7.432,3.335-7.432,7.434
			c0,1.46,0.424,2.822,1.155,3.972c0.441,8.585,3.858,26.424,23.739,35.404C75.293,64.734,73.396,38.198,73.221,36.248z
			 M32.057,31.685c2.931,0,5.315,2.384,5.315,5.314c0,2.931-2.385,5.315-5.315,5.315c-2.93,0-5.313-2.384-5.313-5.315
			C26.744,34.069,29.127,31.685,32.057,31.685z M27.748,43.052c0-0.001,0-0.002-0.003-0.002
			C27.748,43.05,27.748,43.05,27.748,43.052z M26.009,41.314C26.009,41.313,26.008,41.313,26.009,41.314
			C26.008,41.313,26.009,41.313,26.009,41.314z M56.43,69.87c-2.099,1.579-4.404,2.972-6.91,4.169
			c-5.215-2.491-9.576-5.827-12.971-9.924c-1.158-1.397-2.207-2.888-3.145-4.463c-0.519-0.959-0.44-2.396,2.096-2.155
			C51.479,59.029,57.118,66.537,56.43,69.87z M69.087,52.019c-0.288,0.882-0.604,1.746-0.949,2.592
			c-0.859-1.738-4.427-8.078-10.274-4.866l0.407,0.294c0.582-0.082,6.948-0.84,8.136,5.047c-0.75-0.538-1.324-0.584-2.41-0.584
			c-0.752,0-3.249,0.169-4.7-1.33l-0.04,0.312L58.99,53.87l-0.129,0.146c0.798,1.089,2.095,2.093,4.182,2.211
			c4.166,0.232,2.827,3.011,2.373,3.791c-0.882,1.441-1.858,2.81-2.925,4.1c-1.503,1.81-3.191,3.471-5.06,4.977
			c0.453-5.923-10.588-13.411-20.288-14.352c-3.856-0.284-6.212-2.174-7.638-4.178c-0.76-2.659-1.188-5.15-1.417-7.283
			c1.149,0.729,2.511,1.152,3.968,1.152c4.099,0,7.434-3.335,7.434-7.434c0-1.265-0.318-2.457-0.878-3.5l0,0
			c3.559-0.856,7.221-1.298,10.907-1.298c7.557,0,15.019,1.845,21.657,5.345C71.264,39.918,71.187,45.601,69.087,52.019z
			 M38.301,32.974c0.01,0.016,0.022,0.032,0.03,0.047C38.323,33.005,38.311,32.989,38.301,32.974z"/>
	</g>
</g>
<g id="REUNUKSET" display="none">
	<polygon display="inline" fill="none" stroke="#59595B" stroke-width="9.4534" stroke-miterlimit="10" points="48.971,87.655 
		15.469,68.313 15.469,29.629 48.971,10.286 82.473,29.629 82.473,68.313 	"/>
</g>
</svg>
