<?xml version="1.0" encoding="utf-8"?>
<!-- Generator: Adobe Illustrator 16.0.0, SVG Export Plug-In . SVG Version: 6.00 Build 0)  -->
<!DOCTYPE svg PUBLIC "-//W3C//DTD SVG 1.1//EN" "http://www.w3.org/Graphics/SVG/1.1/DTD/svg11.dtd">
<svg version="1.1" xmlns="http://www.w3.org/2000/svg" xmlns:xlink="http://www.w3.org/1999/xlink" x="0px" y="0px"
	 width="31.133px" height="35.947px" viewBox="0 0 31.133 35.947" enable-background="new 0 0 31.133 35.947" xml:space="preserve">
<g id="importit" display="none">
</g>
<g id="LOGOT">
	<polygon fill="#59595B" points="24.932,21.874 24.932,16.169 16.316,16.169 16.316,11.24 18.173,10.168 18.173,7.157 15.566,5.652 
		12.959,7.157 12.959,10.168 14.816,11.24 14.816,16.169 6.201,16.169 6.201,21.874 4.344,22.945 4.344,25.957 6.951,27.461 
		9.558,25.957 9.558,22.945 7.701,21.874 7.701,17.669 14.816,17.669 14.816,21.874 12.959,22.945 12.959,25.957 15.566,27.461 
		18.173,25.957 18.173,22.945 16.316,21.874 16.316,17.669 23.432,17.669 23.432,21.874 21.576,22.945 21.576,25.957 24.182,27.461 
		26.789,25.957 26.789,22.945 	"/>
</g>
<g id="REUNUKSET" display="none">
	<polygon display="inline" fill="#010101" points="31.133,26.957 15.566,35.947 0,26.957 0,8.982 15.566,0 31.133,8.982 	"/>
</g>
</svg>
