<?xml version="1.0" encoding="utf-8"?>
<!-- Generator: Adobe Illustrator 16.0.0, SVG Export Plug-In . SVG Version: 6.00 Build 0)  -->
<!DOCTYPE svg PUBLIC "-//W3C//DTD SVG 1.1//EN" "http://www.w3.org/Graphics/SVG/1.1/DTD/svg11.dtd">
<svg version="1.1" xmlns="http://www.w3.org/2000/svg" xmlns:xlink="http://www.w3.org/1999/xlink" x="0px" y="0px"
	 width="144.344px" height="166.674px" viewBox="0 0 144.344 166.674" enable-background="new 0 0 144.344 166.674"
	 xml:space="preserve">
<g id="importit" display="none">
</g>
<g id="LOGOT">
	<path fill="#59595B" d="M72.172,0L0,41.667v83.339l72.172,41.667l72.172-41.667V41.667L72.172,0z M56.605,28.256l15.566-8.987
		l15.567,8.987V46.23l-15.567,8.988L56.605,46.23V28.256z M72.172,61.827l18.629,10.756v21.509l-18.629,10.756L53.544,94.091V72.583
		L72.172,61.827z M47.82,115.372l-15.566,8.986l-15.567-8.986V97.397l15.567-8.988l15.566,8.988V115.372z M47.82,51.302v17.976
		l-15.566,8.988l-15.567-8.99V51.302l15.567-8.986L47.82,51.302L47.82,51.302z M87.739,138.417l-15.567,8.987l-15.566-8.987v-17.974
		l15.566-8.988l15.567,8.988V138.417z M127.658,115.372l-15.567,8.986l-15.567-8.986V97.397l15.567-8.988l15.567,8.988V115.372z
		 M127.658,69.276l-15.567,8.99l-15.567-8.99V51.302l15.567-8.986l15.567,8.986V69.276z"/>
</g>
<g id="REUNUKSET" display="none">
	<path display="inline" d="M48.588,95.914L7.489,72.186V24.729L48.588,1l41.099,23.729v47.457L48.588,95.914z M17.489,66.412
		l31.099,17.955l31.099-17.955v-35.91L48.588,12.547L17.489,30.502V66.412z"/>
	<path display="inline" d="M180.788,95.914l-41.099-23.729V24.729L180.788,1l41.099,23.729v47.457L180.788,95.914z M149.689,66.412
		l31.099,17.955l31.099-17.955v-35.91l-31.099-17.956l-31.099,17.956V66.412z"/>
	<path display="inline" d="M48.588,240.831L7.489,217.103v-47.456l41.099-23.729l41.099,23.729v47.456L48.588,240.831z
		 M17.489,211.329l31.099,17.955l31.099-17.955V175.42l-31.099-17.956L17.489,175.42V211.329z"/>
	<path display="inline" d="M180.788,240.831l-41.099-23.729v-47.457l41.099-23.729l41.099,23.729v47.457L180.788,240.831z
		 M149.689,211.329l31.099,17.955l31.099-17.955v-35.91l-31.099-17.955l-31.099,17.955V211.329z"/>
</g>
</svg>
