<?xml version="1.0" encoding="utf-8"?>
<!-- Generator: Adobe Illustrator 16.0.0, SVG Export Plug-In . SVG Version: 6.00 Build 0)  -->
<!DOCTYPE svg PUBLIC "-//W3C//DTD SVG 1.1//EN" "http://www.w3.org/Graphics/SVG/1.1/DTD/svg11.dtd">
<svg version="1.1" xmlns="http://www.w3.org/2000/svg" xmlns:xlink="http://www.w3.org/1999/xlink" x="0px" y="0px"
	 width="97.941px" height="97.941px" viewBox="0 0 97.941 97.941" enable-background="new 0 0 97.941 97.941" xml:space="preserve">
<g id="importit">
</g>
<g id="LOGOT">
	<path fill="#59595B" d="M43.736,59.57h-5.104V38.371h5.104V59.57z M69.787,38.371h-5.059c-2.386,0-4.319,1.934-4.319,4.319v16.88
		h5.104v-15.85c0-0.605,0.489-1.096,1.095-1.096h1.298c0.605,0,1.097,0.49,1.097,1.096v4.498H66.2v4.22h2.803v7.132h5.103V42.69
		C74.105,40.305,72.172,38.371,69.787,38.371z M30.035,42.625h6.723v-4.254h-8.604c-2.385,0-4.318,1.934-4.318,4.319v16.88h5.103
		v-8.44h5.758v-4.22h-5.758v-3.189C28.938,43.115,29.43,42.625,30.035,42.625z M51.812,42.625h6.722v-4.254H49.93
		c-2.384,0-4.317,1.934-4.317,4.319v16.88h5.104v-8.44h5.758v-4.22h-5.758v-3.189C50.716,43.115,51.206,42.625,51.812,42.625z"/>
</g>
<g id="REUNUKSET" display="none">
	<polygon display="inline" fill="none" stroke="#59595B" stroke-width="9.4534" stroke-miterlimit="10" points="48.971,87.655 
		15.469,68.313 15.469,29.629 48.971,10.286 82.473,29.629 82.473,68.313 	"/>
</g>
</svg>
