<?xml version="1.0" encoding="utf-8"?>
<!-- Generator: Adobe Illustrator 16.0.0, SVG Export Plug-In . SVG Version: 6.00 Build 0)  -->
<!DOCTYPE svg PUBLIC "-//W3C//DTD SVG 1.1//EN" "http://www.w3.org/Graphics/SVG/1.1/DTD/svg11.dtd">
<svg version="1.1" xmlns="http://www.w3.org/2000/svg" xmlns:xlink="http://www.w3.org/1999/xlink" x="0px" y="0px"
	 width="97.941px" height="97.941px" viewBox="0 0 97.941 97.941" enable-background="new 0 0 97.941 97.941" xml:space="preserve">
<g id="importit">
</g>
<g id="LOGOT">
	<path fill="#59595B" d="M48.972,23.448L26.868,36.21v25.521l22.104,12.762l22.102-12.762V36.21L48.972,23.448z M44.256,30.109
		c1.686-0.473,3.465-0.726,5.302-0.726c8.963,0,16.52,6.019,18.848,14.235c-3.192-3.616-7.864-5.9-13.068-5.9
		c-4.208,0-8.068,1.493-11.081,3.979V30.109z M32.596,58.764c-4.482-7.761-3.047-17.314,2.904-23.44
		c-1.535,4.574-1.177,9.761,1.424,14.267c2.104,3.646,5.329,6.243,8.986,7.608l-10.035,5.793
		C34.622,61.768,33.514,60.354,32.596,58.764z M66.521,58.764C62.04,66.524,53.049,70.06,44.77,67.968
		c4.729-0.958,9.042-3.86,11.643-8.367c2.105-3.645,2.743-7.736,2.096-11.586l10.036,5.795
		C68.11,55.506,67.439,57.172,66.521,58.764z"/>
</g>
<g id="REUNUKSET" display="none">
	<polygon display="inline" fill="none" stroke="#59595B" stroke-width="9.4534" stroke-miterlimit="10" points="48.971,87.655 
		15.469,68.313 15.469,29.629 48.971,10.286 82.473,29.629 82.473,68.313 	"/>
</g>
</svg>
