<?xml version="1.0" encoding="utf-8"?>
<!-- Generator: Adobe Illustrator 16.0.0, SVG Export Plug-In . SVG Version: 6.00 Build 0)  -->
<!DOCTYPE svg PUBLIC "-//W3C//DTD SVG 1.1//EN" "http://www.w3.org/Graphics/SVG/1.1/DTD/svg11.dtd">
<svg version="1.1" xmlns="http://www.w3.org/2000/svg" xmlns:xlink="http://www.w3.org/1999/xlink" x="0px" y="0px"
	 width="82.197px" height="94.914px" viewBox="0 0 82.197 94.914" enable-background="new 0 0 82.197 94.914" xml:space="preserve">
<g id="importit" display="none">
</g>
<g id="LOGOT">
	<g>
		<path fill="#59595B" d="M44.267,41.985c0,0-1.994-0.119,0.653,2.394c1.885,1.86,7.598,2.126,11.94,2.134
			c-1.685-0.712-3.655-1.542-4.09-1.71c-1.837-0.715-3.886-1.511-5.666-2.536C45.377,42.093,44.267,41.985,44.267,41.985z"/>
		<path fill="#59595B" d="M49.269,38.435c-3.015-1.603-5.317-3.217-5.317-3.217s-1.298-0.537-0.333,2.327
			c1.302,3.884,7.508,5.641,11.552,7.339c-1.113-1.1-2.461-2.481-3.799-3.979C50.605,40.046,49.903,39.222,49.269,38.435z"/>
		<path fill="#59595B" d="M61.959,40.619C55.136,39.541,46.657,27.11,46.657,27.11s-0.964-1.282-1.028,2.64
			c-0.031,5.586,12.725,17.034,12.725,17.034c3.624,3.381,3.042,7.152,3.042,7.152c-0.415,3.844-4.046,4.948-4.046,4.948
			c-3.75,0.82-4.436,2.248-4.436,2.248c-1.667,3.075,1.261,3.481,2.315,3.313c3.26-0.509,12.217-5.831,16.968-8.825V41.656
			C69.942,41.669,65.843,41.541,61.959,40.619z"/>
		<path fill="#59595B" d="M38.577,57.704c-1.302-3.884-7.507-5.641-11.552-7.339c1.113,1.1,2.461,2.481,3.799,3.979
			c0.768,0.858,1.47,1.682,2.104,2.469c3.015,1.603,5.317,3.217,5.317,3.217S39.543,60.568,38.577,57.704z"/>
		<path fill="#59595B" d="M20.238,54.629c6.823,1.078,15.302,13.509,15.302,13.509s0.964,1.282,1.028-2.64
			c0.031-5.586-12.725-17.034-12.725-17.034c-3.624-3.381-3.042-7.152-3.042-7.152c0.415-3.844,4.046-4.948,4.046-4.948
			c3.75-0.82,4.436-2.248,4.436-2.248c1.667-3.075-1.261-3.481-2.315-3.313c-3.26,0.509-12.217,5.831-16.968,8.825v13.965
			C12.255,53.579,16.354,53.708,20.238,54.629z"/>
		<path fill="#59595B" d="M29.427,50.444c1.837,0.715,3.886,1.511,5.666,2.536c1.728,0.175,2.838,0.283,2.838,0.283
			s1.994,0.119-0.653-2.394c-1.885-1.86-7.598-2.126-11.94-2.134C27.022,49.446,28.992,50.276,29.427,50.444z"/>
	</g>
</g>
<g id="REUNUKSET" display="none">
	<path display="inline" d="M74.299,96.914L33.2,73.186V25.729L74.299,2l41.099,23.729v47.457L74.299,96.914z M43.2,67.412
		l31.099,17.955l31.099-17.955v-35.91L74.299,13.547L43.2,31.502V67.412z"/>
</g>
</svg>
