<?xml version="1.0" encoding="utf-8"?>
<!-- Generator: Adobe Illustrator 16.0.0, SVG Export Plug-In . SVG Version: 6.00 Build 0)  -->
<!DOCTYPE svg PUBLIC "-//W3C//DTD SVG 1.1//EN" "http://www.w3.org/Graphics/SVG/1.1/DTD/svg11.dtd">
<svg version="1.1" xmlns="http://www.w3.org/2000/svg" xmlns:xlink="http://www.w3.org/1999/xlink" x="0px" y="0px"
	 width="97.941px" height="97.941px" viewBox="0 0 97.941 97.941" enable-background="new 0 0 97.941 97.941" xml:space="preserve">
<g id="importit">
</g>
<g id="LOGOT">
	<linearGradient id="ULKO_x5F_paksu_1_" gradientUnits="userSpaceOnUse" x1="49.2886" y1="-71.6533" x2="49.2886" y2="42.2319">
		<stop  offset="0" style="stop-color:#FFFFFF"/>
		<stop  offset="0.3764" style="stop-color:#FCFCFC"/>
		<stop  offset="0.522" style="stop-color:#F4F5F5"/>
		<stop  offset="0.6275" style="stop-color:#EAEBEC"/>
		<stop  offset="0.7138" style="stop-color:#DCDDDE"/>
		<stop  offset="0.7882" style="stop-color:#C9CBCD"/>
		<stop  offset="0.8546" style="stop-color:#B2B4B7"/>
		<stop  offset="0.9148" style="stop-color:#989A9D"/>
		<stop  offset="0.9686" style="stop-color:#7C7E81"/>
		<stop  offset="1" style="stop-color:#696A6D"/>
	</linearGradient>
	<circle id="ULKO_x5F_paksu" display="none" fill="url(#ULKO_x5F_paksu_1_)" cx="49.289" cy="-14.711" r="56.942"/>
	<path fill="#59595B" d="M57.959,47.128c0-4.34-3.076-7.96-7.166-8.803V19.058h-3.644v19.268c-4.092,0.843-7.167,4.463-7.167,8.803
		c0,4.614,3.477,8.413,7.952,8.927l-0.968,1.205l2.004,23.624l2.004-23.624l-0.968-1.205C54.483,55.541,57.959,51.742,57.959,47.128
		z M48.971,52.473c-2.947,0-5.344-2.398-5.344-5.345c0-2.947,2.397-5.344,5.344-5.344s5.346,2.396,5.346,5.344
		C54.316,50.074,51.918,52.473,48.971,52.473z"/>
</g>
<g id="REUNUKSET" display="none">
	<polygon display="inline" fill="none" stroke="#59595B" stroke-width="9.4534" stroke-miterlimit="10" points="48.971,87.655 
		15.469,68.313 15.469,29.629 48.971,10.286 82.473,29.629 82.473,68.313 	"/>
</g>
</svg>
