<?xml version="1.0" encoding="utf-8"?>
<!-- Generator: Adobe Illustrator 16.0.0, SVG Export Plug-In . SVG Version: 6.00 Build 0)  -->
<!DOCTYPE svg PUBLIC "-//W3C//DTD SVG 1.1//EN" "http://www.w3.org/Graphics/SVG/1.1/DTD/svg11.dtd">
<svg version="1.1" xmlns="http://www.w3.org/2000/svg" xmlns:xlink="http://www.w3.org/1999/xlink" x="0px" y="0px"
	 width="31.133px" height="35.947px" viewBox="0 0 31.133 35.947" enable-background="new 0 0 31.133 35.947" xml:space="preserve">
<g id="importit" display="none">
</g>
<g id="LOGOT">
	<path fill="#59595B" d="M24.168,20.916l0.239-1.24l0.239-1.242l-1.687-0.768c-0.033-0.807-0.199-1.586-0.479-2.32l1.249-1.373
		l-0.709-1.049l-0.708-1.045l-1.738,0.65c-0.577-0.531-1.241-0.977-1.979-1.309l-0.087-1.85l-1.241-0.24l-1.241-0.236l-0.768,1.686
		c-0.806,0.033-1.588,0.199-2.322,0.48l-1.373-1.25l-1.045,0.709l-1.046,0.709l0.651,1.736c-0.532,0.578-0.977,1.24-1.308,1.98
		l-1.851,0.086l-0.238,1.24l-0.24,1.242l1.687,0.766c0.034,0.807,0.199,1.59,0.48,2.322l-1.249,1.373l0.708,1.047l0.708,1.047
		l1.738-0.652c0.578,0.533,1.242,0.979,1.979,1.309l0.085,1.852l1.243,0.238l1.239,0.238l0.77-1.686
		c0.807-0.035,1.588-0.199,2.321-0.479l1.373,1.248l1.047-0.709l1.044-0.707l-0.65-1.74c0.533-0.576,0.978-1.242,1.308-1.979
		L24.168,20.916z M14.843,21.732c-2.074-0.398-3.436-2.408-3.037-4.482s2.411-3.438,4.485-3.037
		c2.073,0.398,3.435,2.412,3.035,4.484C18.927,20.77,16.916,22.133,14.843,21.732z"/>
</g>
<g id="REUNUKSET" display="none">
	<polygon display="inline" fill="#010101" points="31.133,26.957 15.566,35.947 0,26.957 0,8.982 15.566,0 31.133,8.982 	"/>
</g>
</svg>
