<?xml version="1.0" encoding="utf-8"?>
<!-- Generator: Adobe Illustrator 16.0.0, SVG Export Plug-In . SVG Version: 6.00 Build 0)  -->
<!DOCTYPE svg PUBLIC "-//W3C//DTD SVG 1.1//EN" "http://www.w3.org/Graphics/SVG/1.1/DTD/svg11.dtd">
<svg version="1.1" xmlns="http://www.w3.org/2000/svg" xmlns:xlink="http://www.w3.org/1999/xlink" x="0px" y="0px"
	 width="97.941px" height="97.941px" viewBox="0 0 97.941 97.941" enable-background="new 0 0 97.941 97.941" xml:space="preserve">
<g id="importit">
</g>
<g id="LOGOT">
	<path fill="#59595B" d="M48.969,26.089c-12.636,0-22.881,10.245-22.881,22.881c0,12.637,10.245,22.882,22.881,22.882
		c12.638,0,22.882-10.245,22.882-22.882C71.851,36.334,61.606,26.089,48.969,26.089z M66.645,48.97c0,1.07-0.101,2.118-0.284,3.139
		H46.444v-20.63c0.825-0.12,1.667-0.184,2.524-0.184C58.715,31.295,66.645,39.224,66.645,48.97z M38.791,34.533v17.575h-7.213
		c-0.183-1.021-0.284-2.068-0.284-3.139C31.294,43.01,34.261,37.736,38.791,34.533z M32.419,55.168h6.372v8.239
		C35.919,61.378,33.676,58.514,32.419,55.168z M48.969,66.646c-0.857,0-1.699-0.064-2.524-0.184V55.168H65.52
		C63.004,61.866,56.535,66.646,48.969,66.646z"/>
</g>
<g id="REUNUKSET" display="none">
	<polygon display="inline" fill="none" stroke="#59595B" stroke-width="9.4534" stroke-miterlimit="10" points="48.971,87.655 
		15.469,68.313 15.469,29.629 48.971,10.286 82.473,29.629 82.473,68.313 	"/>
</g>
</svg>
