<?xml version="1.0" encoding="utf-8"?>
<!-- Generator: Adobe Illustrator 16.0.0, SVG Export Plug-In . SVG Version: 6.00 Build 0)  -->
<!DOCTYPE svg PUBLIC "-//W3C//DTD SVG 1.1//EN" "http://www.w3.org/Graphics/SVG/1.1/DTD/svg11.dtd">
<svg version="1.1" xmlns="http://www.w3.org/2000/svg" xmlns:xlink="http://www.w3.org/1999/xlink" x="0px" y="0px"
	 width="97.941px" height="97.941px" viewBox="0 0 97.941 97.941" enable-background="new 0 0 97.941 97.941" xml:space="preserve">
<g id="importit">
</g>
<g id="LOGOT">
	<path fill="#59595B" d="M48.52,45.571H21.747v-2.205H48.52V45.571z M21.747,48.479H32.45v5.782h2.383v-7.988H21.747V48.479z
		 M48.52,46.273H35.434v7.988h2.383v-5.782H48.52V46.273z M49.422,43.366v2.205h24.391v8.69h2.382V43.366H49.422z M63.293,54.262
		h2.381v-5.782h5.156v5.782h2.383v-7.988h-9.92V54.262z M52.405,54.262h2.381v-5.782h5.522v5.782h2.383v-7.988H52.405V54.262z
		 M49.422,54.262h2.382v-7.988h-2.382V54.262z"/>
</g>
<g id="REUNUKSET" display="none">
	<polygon display="inline" fill="none" stroke="#59595B" stroke-width="9.4534" stroke-miterlimit="10" points="48.971,87.655 
		15.469,68.313 15.469,29.629 48.971,10.286 82.473,29.629 82.473,68.313 	"/>
</g>
</svg>
