<?xml version="1.0" encoding="utf-8"?>
<!-- Generator: Adobe Illustrator 16.0.0, SVG Export Plug-In . SVG Version: 6.00 Build 0)  -->
<!DOCTYPE svg PUBLIC "-//W3C//DTD SVG 1.1//EN" "http://www.w3.org/Graphics/SVG/1.1/DTD/svg11.dtd">
<svg version="1.1" xmlns="http://www.w3.org/2000/svg" xmlns:xlink="http://www.w3.org/1999/xlink" x="0px" y="0px"
	 width="97.941px" height="97.941px" viewBox="0 0 97.941 97.941" enable-background="new 0 0 97.941 97.941" xml:space="preserve">
<g id="importit">
</g>
<g id="LOGOT">
	<path fill="#59595B" d="M48.971,71.113 M39.785,61.881L45.2,56.35l-3.165-2.922V39.875h-7.503v16.734L39.785,61.881z
		 M42.077,29.478l-7.545,7.608h10.832v30.404l3.607,3.624l3.607-3.624V37.085H63.41l-7.544-7.608h-6.896H42.077z M63.41,56.609
		V39.875h-7.503v13.552l-3.165,2.922l5.415,5.531L63.41,56.609z M66.646,35.753v22.191L48.971,75.699L31.296,57.945V35.753
		l9.432-9.511h8.242h8.242L66.646,35.753z M65.027,36.419l-8.488-8.559H41.402l-8.488,8.559v20.857l16.057,16.128l16.057-16.128
		V36.419z"/>
</g>
<g id="REUNUKSET" display="none">
	<polygon display="inline" fill="none" stroke="#59595B" stroke-width="9.4534" stroke-miterlimit="10" points="48.971,87.655 
		15.469,68.313 15.469,29.629 48.971,10.286 82.473,29.629 82.473,68.313 	"/>
</g>
</svg>
